<svg viewBox="0 0 316.63 474.07" xmlns="http://www.w3.org/2000/svg"><path d="m97.29 41.1a15.85 15.85 0 1 1 15.85-15.85 15.87 15.87 0 0 1 -15.85 15.85zm0-19.7a3.85 3.85 0 1 0 3.85 3.85 3.85 3.85 0 0 0 -3.85-3.85z" fill="#e7f6ff"/><circle cx="125.57" cy="35.86" fill="#e7f6ff" r="5.56"/><path d="m206.16 325.89v12.21c-3.53 11.23-9.08 24.37-16.37 38.86-3 5.75-6.21 11.82-9.65 18.06 2.35-4 4.61-7.91 6.79-11.81-2.54 4.82-5.23 9.83-8.07 14.92v-19l.84-1.59-.84 1.5v-.7q1.9-3.59 3.7-7c7.91-15.74 13.78-29.87 17.24-41.71 2.15-1.21 4.27-2.46 6.36-3.74z" fill="#bbd2e5" opacity=".5"/><path d="m258.69 148.56c-.12 55.5-45.62 100.78-101.1 100.66-48.05-.1-88.47-34.24-98.34-79.44a100.26 100.26 0 0 1 -1.51-17.59c.12-55.47 45.62-100.78 101.09-100.66 48 .1 88.35 34.15 98.31 79.23a.23.23 0 0 0 0 .07 100.19 100.19 0 0 1 1.55 17.73z" fill="#fff"/><path d="m158.67 6.25c-93.31-.2-151.44 58.52-151.67 150.99-.06 28.58 15 73.16 40.92 127 11.72 22.73 26 48 41 73.23 18.42 31.14 38.53 62.29 58.65 90.91l10.06 13.48c3.37-4.21 6.74-8.4 10.11-13.44 20.25-29.37 40.48-59.6 59-90.65 15.19-25.19 28.7-50.38 40.51-73.05 27-53.74 42.25-98.26 42.31-126.84.29-89.94-60.1-151.43-150.89-151.63zm-.53 243.75c-55.48-.12-100.78-45.6-100.66-101.09s45.62-100.75 101.1-100.63 100.78 45.61 100.66 101.09-45.62 100.78-101.1 100.63z" fill="#f3aa9f"/><path d="m261.53 298.15c-10.38 19.67-21.95 40.84-34.72 62-18.55 31.05-38.79 61.28-59 90.65-3.37 5-6.74 9.23-10.12 13.44l-10.09-13.47c-20.12-28.62-40.23-59.77-58.6-90.9-15.09-25.26-29.32-50.51-41-73.23-26-53.86-41.06-98.45-41-127.03.08-38.16 10-70.56 28.24-95.46-7.21 18.78-11 40.17-11.08 63.75-.06 28.58 15 73.17 40.92 127 11.72 22.72 25.95 48 41 73.23 18.42 31.13 38.53 62.28 58.64 90.9l10.06 13.48c3.38-4.21 6.75-8.4 10.12-13.44 20.24-29.37 40.48-59.6 59-90.65 6.2-10.12 12.05-20.28 17.63-30.27z" fill="#e1978f"/><path d="m157.46 474.07-15.58-20.89c-20.18-28.7-40.56-60.29-58.95-91.37-15.75-26.37-30-51.83-41.23-73.59l-.08-.17c-27.68-57.44-41.68-101.21-41.62-130.05.1-47.39 15-87.22 43-115.21s67.8-42.79 115.17-42.79h.49c46.35.1 86 15.4 114.57 44.23s43.5 68.3 43.41 114.42c-.06 29.13-15 74.08-43.05 130v.09c-10.54 20.23-24.69 46.85-40.72 73.44-19.86 33.24-41.11 64.66-59.27 91-3.45 5.15-6.93 9.49-10.29 13.69zm-4.19-29 4.53 6.07c1.39-1.84 2.77-3.76 4.15-5.82 18.05-26.32 39.19-57.46 58.85-90.37 15.84-26.25 29.84-52.61 40.29-72.65 27.12-53.94 41.48-96.7 41.54-123.67.19-86.32-57.69-144.44-144-144.63h-.46c-88.75 0-143.98 55.14-144.17 144-.06 26.35 13.84 69.18 40.19 123.88 11.08 21.49 25.18 46.65 40.81 72.77 18.17 30.76 38.32 62.01 58.27 90.35zm5.07-187.26h-.24a107.88 107.88 0 0 1 .23-215.81h.24a107.76 107.76 0 0 1 75.8 184.24 107.12 107.12 0 0 1 -76.03 31.54zm0-201.75a93.88 93.88 0 0 0 -.2 187.75h.21a93.88 93.88 0 0 0 .19-187.81z" fill="#426572"/><g fill="#fff"><path d="m279.18 99.46a127.44 127.44 0 0 1 6.76 21.82c.34 1.72.6 3.41.88 5s.59 3.22.69 4.77l.41 4.48c.11 1.44.28 2.81.26 4.13 0 2.64.05 5 0 7.11s-.3 3.89-.48 5.35c-.38 2.93-.85 4.53-1.37 4.53s-1.07-1.6-1.61-4.45c-.28-1.43-.49-3.17-.82-5.18s-.75-4.29-1.13-6.8c-.16-1.26-.48-2.56-.74-3.92l-.82-4.23c-.23-1.47-.69-2.95-1-4.49s-.72-3.13-1.14-4.74a176.6 176.6 0 0 0 -6.95-20.47 163.86 163.86 0 0 0 -9.8-19.25l-2.55-4.12-2.56-3.83c-.8-1.26-1.65-2.41-2.46-3.53s-1.56-2.22-2.32-3.24c-6.09-8.14-10.29-13-9.53-13.83s6.23 2.76 13.65 10.32c.93.94 1.84 2 2.81 3.05s2 2.19 2.93 3.42 2 2.47 3 3.79l3 4.19a121.35 121.35 0 0 1 10.89 20.12z"/><path d="m219.19 32.34c6.66 3.86 10.64 8.95 9.4 10.62s-7-.39-13.25-4-10.85-7.45-10.1-9.39 7.31-1.11 13.95 2.77z"/></g></svg>